{
    "asset" : {
        "generator" : "Khronos glTF Blender I/O v3.3.32",
        "version" : "2.0"
    },
    "scene" : 0,
    "scenes" : [
        {
            "name" : "Scene",
            "nodes" : [
                0
            ]
        }
    ],
    "nodes" : [
        {
            "mesh" : 0,
            "name" : "Terrain"
        }
    ],
    "meshes" : [
        {
            "name" : "Mesh_0",
            "primitives" : [
                {
                    "attributes" : {
                        "POSITION" : 0,
                        "NORMAL" : 1,
                        "TEXCOORD_0" : 2
                    },
                    "indices" : 3
                }
            ]
        }
    ],
    "accessors" : [
        {
            "bufferView" : 0,
            "componentType" : 5126,
            "count" : 64289,
            "max" : [
                7000,
                1158.136962890625,
                1000
            ],
            "min" : [
                -1000,
                -299.54827880859375,
                -7000
            ],
            "type" : "VEC3"
        },
        {
            "bufferView" : 1,
            "componentType" : 5126,
            "count" : 64289,
            "type" : "VEC3"
        },
        {
            "bufferView" : 2,
            "componentType" : 5126,
            "count" : 64289,
            "type" : "VEC2"
        },
        {
            "bufferView" : 3,
            "componentType" : 5123,
            "count" : 384000,
            "type" : "SCALAR"
        }
    ],
    "bufferViews" : [
        {
            "buffer" : 0,
            "byteLength" : 771468,
            "byteOffset" : 0,
            "target" : 34962
        },
        {
            "buffer" : 0,
            "byteLength" : 771468,
            "byteOffset" : 771468,
            "target" : 34962
        },
        {
            "buffer" : 0,
            "byteLength" : 514312,
            "byteOffset" : 1542936,
            "target" : 34962
        },
        {
            "buffer" : 0,
            "byteLength" : 768000,
            "byteOffset" : 2057248,
            "target" : 34963
        }
    ],
    "buffers" : [
        {
            "byteLength" : 2825248,
            "uri" : "data:application/octet-stream;base64,"
        }
    ]
}
